<?xml version="1.0" encoding="UTF-8" standalone="no"?>
<svg
   xmlns:dc="http://purl.org/dc/elements/1.1/"
   xmlns:cc="http://creativecommons.org/ns#"
   xmlns:rdf="http://www.w3.org/1999/02/22-rdf-syntax-ns#"
   xmlns:svg="http://www.w3.org/2000/svg"
   xmlns="http://www.w3.org/2000/svg"
   viewBox="0 0 337.29333 61.293331"
   height="61.293331"
   width="337.29333"
   xml:space="preserve"
   id="svg2"
   version="1.1"><metadata
     id="metadata8"><rdf:RDF><cc:Work
         rdf:about=""><dc:format>image/svg+xml</dc:format><dc:type
           rdf:resource="http://purl.org/dc/dcmitype/StillImage" /></cc:Work></rdf:RDF></metadata><defs
     id="defs6" /><g
     transform="matrix(1.3333333,0,0,-1.3333333,0,61.293333)"
     id="g10"><g
       transform="scale(0.1)"
       id="g12"><path
         id="path14"
         style="fill:#ffffff;fill-opacity:1;fill-rule:nonzero;stroke:none"
         d="M 341.074,91.043 C 333.016,77.9453 323.441,66.0117 312.359,55.2695 301.273,44.5195 289.016,35.2813 275.582,27.5547 262.145,19.8398 247.699,13.875 232.258,9.68359 216.805,5.47656 200.852,3.38672 184.395,3.38672 158.867,3.38672 134.934,8.25 112.602,17.9961 90.2656,27.7305 70.7852,40.9922 54.1602,57.7891 37.5352,74.5781 24.3516,94.1484 14.6094,116.48 4.86719,138.816 0,162.742 0,188.277 c 0,25.52 4.86719,49.453 14.6094,71.793 9.7422,22.325 22.9258,41.891 39.5508,58.692 16.625,16.789 36.1054,30.054 58.4418,39.801 22.332,9.742 46.265,14.609 71.793,14.609 16.457,0 32.41,-2.102 47.863,-6.301 15.441,-4.199 29.887,-10.156 43.324,-17.879 13.434,-7.73 25.691,-17.051 36.777,-27.965 11.082,-10.922 20.657,-22.918 28.715,-36.019 l -56.426,-56.426 c -4.027,10.074 -9.32,19.305 -15.863,27.703 -6.555,8.399 -14.195,15.621 -22.93,21.664 -8.734,6.047 -18.304,10.746 -28.714,14.114 -10.418,3.355 -21.328,5.035 -32.746,5.035 -14.786,0 -28.801,-2.86 -42.071,-8.571 -13.265,-5.707 -24.773,-13.519 -34.508,-23.422 -9.7457,-9.906 -17.4683,-21.41 -23.1754,-34.511 -5.7148,-13.098 -8.5664,-27.207 -8.5664,-42.317 0,-15.117 2.8516,-29.218 8.5664,-42.324 5.7071,-13.094 13.4297,-24.609 23.1754,-34.512 9.735,-9.902 21.243,-17.7144 34.508,-23.4176 13.27,-5.7226 27.285,-8.5625 42.071,-8.5625 11.418,0 22.328,1.6797 32.746,5.0274 10.41,3.3594 19.98,8.0664 28.714,14.1133 8.735,6.0434 16.375,13.1834 22.93,21.4064 6.543,8.23 11.836,17.383 15.863,27.461 l 56.426,-56.426" /><path
         id="path16"
         style="fill:#ffffff;fill-opacity:1;fill-rule:nonzero;stroke:none"
         d="m 1109.39,372.668 h 78.59 V 2.87891 h -86.65 L 942.125,242.688 V 2.87891 H 863.531 V 373.172 h 86.657 L 1109.39,133.367 v 239.301" /><path
         id="path18"
         style="fill:#ffffff;fill-opacity:1;fill-rule:nonzero;stroke:none"
         d="M 1475.16,374.184 V 172.156 c 0,-14.785 -2.37,-31.914 -7.06,-51.386 -4.71,-19.493 -12.78,-38.0473 -24.19,-55.6762 -11.42,-17.6368 -26.79,-32.4883 -46.1,-44.5782 -19.31,-12.10154 -43.57,-18.14451 -72.8,-18.14451 -16.11,0 -32.07,1.9336 -47.85,5.80079 -15.8,3.85542 -30.24,10.65232 -43.33,20.39842 l 58.94,58.9453 c 3.35,-3.3593 7.89,-5.2929 13.61,-5.789 5.7,-0.5078 11.91,-0.7618 18.63,-0.7618 11.76,0 21.75,1.7579 29.98,5.293 8.23,3.5235 15.03,8.1328 20.41,13.8552 5.36,5.703 9.48,12.09 12.34,19.141 2.85,7.062 4.95,13.937 6.29,20.656 1.34,6.719 2.09,12.93 2.27,18.641 0.17,5.703 0.25,10.234 0.25,13.605 v 202.028 h 78.61" /><path
         id="path20"
         style="fill:#ffffff;fill-opacity:1;fill-rule:nonzero;stroke:none"
         d="M 1839.4,372.668 V 171.141 c 0,-9.739 -1,-20.578 -3.02,-32.481 -2.01,-11.933 -5.3,-24.113 -9.83,-36.535 -4.53,-12.4297 -10.57,-24.6094 -18.13,-36.5234 -7.56,-11.9336 -16.88,-22.5078 -27.97,-31.7383 -11.07,-9.2383 -24.09,-16.6289 -39.04,-22.168 -14.95,-5.54686 -32.16,-8.30858 -51.64,-8.30858 h -0.5 c -20.16,0 -38.8,3.34766 -55.92,10.07808 -17.14,6.7071 -32.09,16.6211 -44.84,29.7149 -12.09,12.0898 -21.42,25.0976 -27.97,39.043 -6.55,13.9375 -11.33,27.2073 -14.36,39.7973 -3.02,12.605 -4.86,23.515 -5.53,32.753 -0.69,9.239 -1.01,14.864 -1.01,16.883 v 201.012 h 77.08 V 171.141 c 0,-2.688 0.17,-6.719 0.51,-12.082 0.32,-5.379 1.34,-11.426 3.01,-18.133 1.68,-6.731 4.04,-13.613 7.07,-20.656 3.01,-7.059 7.29,-13.614 12.84,-19.657 5.54,-6.0466 12.34,-10.9177 20.4,-14.6091 8.06,-3.7031 17.8,-5.5469 29.22,-5.5469 17.14,0 30.48,4.0313 40.05,12.0977 9.58,8.0583 16.79,17.2973 21.67,27.7153 4.87,10.402 7.89,20.656 9.07,30.734 1.17,10.066 1.76,16.953 1.76,20.652 v 201.012 h 77.08" /><path
         id="path22"
         style="fill:#ffffff;fill-opacity:1;fill-rule:nonzero;stroke:none"
         d="m 2069.13,169.637 c 4.03,0 9.24,0.586 15.63,1.765 6.37,1.164 12.59,3.516 18.64,7.051 6.04,3.527 11.15,8.567 15.36,15.11 4.19,6.55 6.29,15.371 6.29,26.453 0,17.461 -2.27,31.312 -6.8,41.57 -4.53,10.234 -9.91,17.957 -16.12,23.168 -6.22,5.211 -12.51,8.562 -18.89,10.07 -6.38,1.516 -11.26,2.274 -14.61,2.274 h -90.68 V 169.637 Z m 99.76,-35.266 c 9.73,-8.738 18.13,-18.562 25.19,-29.473 7.04,-10.9175 12.84,-22.1753 17.38,-33.7496 4.54,-11.5898 7.81,-23.2695 9.82,-35.0195 2.02,-11.7656 3.03,-22.8398 3.03,-33.24999 h -37.8 -38.28 c 0,2.35156 -0.25,6.28906 -0.76,11.83589 -0.5,5.5469 -1.59,11.668 -3.26,18.3868 -1.69,6.7109 -4.21,13.6054 -7.57,20.6562 -3.36,7.0586 -7.98,13.6016 -13.86,19.6563 -5.87,6.0468 -13.17,10.8984 -21.91,14.6093 -8.74,3.6914 -19.32,5.5391 -31.74,5.5391 h -91.18 V 2.87891 h -75.58 V 373.172 h 166.76 c 1.35,0 5.04,-0.25 11.09,-0.758 6.04,-0.504 13.35,-2.012 21.91,-4.531 8.56,-2.524 17.89,-6.305 27.97,-11.336 10.08,-5.039 19.8,-12.262 29.22,-21.668 27.88,-27.887 41.8,-66.172 41.8,-114.863 0,-19.141 -2.94,-35.77 -8.8,-49.871 -5.88,-14.114 -13.7,-26.036 -23.43,-35.774" /><path
         id="path24"
         style="fill:#ffffff;fill-opacity:1;fill-rule:nonzero;stroke:none"
         d="m 2356.87,296.09 v -75.067 h 166.26 V 143.941 H 2356.87 V 80.457 h 172.81 V 3.38672 H 2280.29 V 372.668 h 249.39 V 296.09 h -172.81" /><path
         id="path26"
         style="fill:#f79456;fill-opacity:1;fill-rule:nonzero;stroke:none"
         d="m 675.992,183.844 c -32.797,-45.145 -95.98,-55.156 -141.129,-22.352 -9.609,6.981 -17.523,15.399 -23.875,24.668 44.969,-30.879 106.59,-20.566 138.852,23.836 25.816,35.539 25.004,82.188 1.523,116.461 0.75,-0.516 1.539,-0.945 2.282,-1.484 45.14,-32.801 55.152,-95.981 22.347,-141.129 z m -81.738,194.101 c -74.399,0 -134.719,-60.312 -134.719,-134.715 0,-74.406 60.32,-134.718 134.719,-134.718 74.398,0 134.719,60.312 134.719,134.718 0,74.403 -60.321,134.715 -134.719,134.715" /><path
         id="path28"
         style="fill:#f79456;fill-opacity:1;fill-rule:nonzero;stroke:none"
         d="m 621.324,432.645 c 0,-14.954 -12.121,-27.071 -27.07,-27.071 -14.949,0 -27.07,12.117 -27.07,27.071 0,14.949 12.121,27.07 27.07,27.07 14.949,0 27.07,-12.121 27.07,-27.07" /><path
         id="path30"
         style="fill:#f79456;fill-opacity:1;fill-rule:nonzero;stroke:none"
         d="m 498.516,407.691 c 6.152,-8.464 4.273,-20.316 -4.196,-26.468 -8.465,-6.149 -20.316,-4.274 -26.468,4.195 -6.153,8.465 -4.274,20.316 4.195,26.469 8.469,6.152 20.316,4.273 26.469,-4.196" /><path
         id="path32"
         style="fill:#f79456;fill-opacity:1;fill-rule:nonzero;stroke:none"
         d="m 422.906,327.82 c 14.219,-4.621 22,-19.894 17.379,-34.113 -4.621,-14.219 -19.89,-21.996 -34.113,-17.379 -14.219,4.621 -21.996,19.895 -17.375,34.113 4.617,14.219 19.891,21.997 34.109,17.379" /><path
         id="path34"
         style="fill:#f79456;fill-opacity:1;fill-rule:nonzero;stroke:none"
         d="m 408.684,203.309 c 9.957,3.242 20.644,-2.207 23.879,-12.161 3.234,-9.96 -2.215,-20.644 -12.168,-23.875 -9.954,-3.242 -20.641,2.207 -23.875,12.157 -3.239,9.961 2.21,20.644 12.164,23.879" /><path
         id="path36"
         style="fill:#f79456;fill-opacity:1;fill-rule:nonzero;stroke:none"
         d="m 768.109,167.273 c -9.953,3.231 -15.398,13.915 -12.168,23.875 3.239,9.954 13.926,15.403 23.879,12.161 9.957,-3.235 15.403,-13.918 12.168,-23.879 -3.23,-9.95 -13.925,-15.399 -23.879,-12.157" /><path
         id="path38"
         style="fill:#f79456;fill-opacity:1;fill-rule:nonzero;stroke:none"
         d="m 782.328,276.328 c -14.219,-4.617 -29.484,3.16 -34.109,17.379 -4.621,14.219 3.164,29.492 17.383,34.113 14.218,4.618 29.492,-3.16 34.113,-17.379 4.617,-14.218 -3.164,-29.492 -17.387,-34.113" /><path
         id="path40"
         style="fill:#f79456;fill-opacity:1;fill-rule:nonzero;stroke:none"
         d="m 720.656,385.418 c -6.152,-8.469 -18.004,-10.344 -26.472,-4.195 -8.465,6.152 -10.344,18.004 -4.192,26.468 6.153,8.469 18,10.348 26.469,4.196 8.469,-6.153 10.344,-18.004 4.195,-26.469" /><path
         id="path42"
         style="fill:#f79456;fill-opacity:1;fill-rule:nonzero;stroke:none"
         d="M 656.867,52.3125 H 531.645 V 78.4648 H 656.867 V 52.3125" /><path
         id="path44"
         style="fill:#f79456;fill-opacity:1;fill-rule:nonzero;stroke:none"
         d="M 656.867,-0.00390625 H 531.645 V 26.1602 H 656.867 V -0.00390625" /></g></g></svg>