<?xml version="1.0" encoding="UTF-8"?>
<svg width="32px" height="32px" viewBox="0 0 32 32" version="1.1" xmlns="http://www.w3.org/2000/svg" xmlns:xlink="http://www.w3.org/1999/xlink">
    <!-- Generator: Sketch 48.2 (47327) - http://www.bohemiancoding.com/sketch -->
    <title>Shape</title>
    <desc>Created with Sketch.</desc>
    <defs></defs>
    <g id="Desktop-HD" stroke="none" stroke-width="1" fill="none" fill-rule="evenodd" transform="translate(-460.000000, -1157.000000)">
        <g id="sell" transform="translate(460.000000, 550.000000)" fill="#484A5F" fill-rule="nonzero">
            <g id="github-integration" transform="translate(0.000000, 600.000000)">
                <g id="mark-github" transform="translate(0.000000, 7.000000)">
                    <path d="M16,0 C7.16,0 0,7.34110392 0,16.4047015 C0,23.6637819 4.58,29.7950391 10.94,31.968662 C11.74,32.1122032 12.04,31.6200621 12.04,31.1894387 C12.04,30.799827 12.02,29.5079568 12.02,28.1340631 C8,28.8927805 6.96,27.1292751 6.64,26.2065106 C6.46,25.7348755 5.68,24.2789582 5,23.8893465 C4.44,23.5817584 3.64,22.8230409 4.98,22.8025351 C6.24,22.7820292 7.14,23.9918759 7.44,24.484017 C8.88,26.9652281 11.18,26.2680283 12.1,25.8374048 C12.24,24.7710992 12.66,24.0533936 13.12,23.643276 C9.56,23.2331585 5.84,21.818253 5.84,15.5434547 C5.84,13.7594434 6.46,12.2830202 7.48,11.1346911 C7.32,10.7245736 6.76,9.0430917 7.64,6.78744524 C7.64,6.78744524 8.98,6.35682183 12.04,8.46892714 C13.32,8.09982136 14.68,7.91526847 16.04,7.91526847 C17.4,7.91526847 18.76,8.09982136 20.04,8.46892714 C23.1,6.33631595 24.44,6.78744524 24.44,6.78744524 C25.32,9.0430917 24.76,10.7245736 24.6,11.1346911 C25.62,12.2830202 26.24,13.7389375 26.24,15.5434547 C26.24,21.8387589 22.5,23.2331585 18.94,23.643276 C19.52,24.1559229 20.02,25.140205 20.02,26.6781458 C20.02,28.8722746 20,30.63578 20,31.1894387 C20,31.6200621 20.3,32.132709 21.1,31.968662 C27.6128924,29.7143614 31.9982426,23.4525799 32,16.4047015 C32,7.34110392 24.84,3.64257546e-15 16,0 Z" id="Shape"></path>
                </g>
            </g>
        </g>
    </g>
</svg>