<?xml version="1.0" encoding="UTF-8"?>
<svg width="32px" height="32px" viewBox="0 0 32 32" version="1.1" xmlns="http://www.w3.org/2000/svg" xmlns:xlink="http://www.w3.org/1999/xlink">
    <!-- Generator: Sketch 48.2 (47327) - http://www.bohemiancoding.com/sketch -->
    <title>dashboard</title>
    <desc>Created with Sketch.</desc>
    <defs></defs>
    <g id="Desktop-HD" stroke="none" stroke-width="1" fill="none" fill-rule="evenodd" transform="translate(-460.000000, -559.000000)">
        <g id="sell" transform="translate(460.000000, 550.000000)" fill="#484A5F" fill-rule="nonzero">
            <g id="move-faster">
                <g id="dashboard" transform="translate(0.000000, 9.000000)">
                    <path d="M17.0666667,8.53333333 L14.9333333,8.53333333 L14.9333333,6.4 L17.0666667,6.4 L17.0666667,8.53333333 Z M25.6,14.9333333 L23.4666667,14.9333333 L23.4666667,17.0666667 L25.6,17.0666667 L25.6,14.9333333 Z M10.6666667,8.53333333 L8.53333333,8.53333333 L8.53333333,10.6666667 L10.6666667,10.6666667 L10.6666667,8.53333333 Z M8.53333333,14.9333333 L6.4,14.9333333 L6.4,17.0666667 L8.53333333,17.0666667 L8.53333333,14.9333333 Z M32,3.2 L30.9333333,2.13333333 L17.0666667,12.8 C16.9386667,12.7573333 14.9333333,12.8 14.9333333,12.8 C13.76,12.8 12.8,13.76 12.8,14.9333333 L12.8,17.0666667 C12.8,18.24 13.76,19.2 14.9333333,19.2 L17.0666667,19.2 C18.24,19.2 19.2,18.24 19.2,17.0666667 L19.2,15.104 L32,3.2 Z M28.608,11.9253333 C29.0133333,13.2266667 29.248,14.592 29.248,16 C29.248,23.296 23.3173333,29.2266667 16.0213333,29.2266667 C8.72533333,29.2266667 2.77333333,23.296 2.77333333,16 C2.77333333,8.704 8.704,2.77333333 16,2.77333333 C18.56,2.77333333 20.928,3.49866667 22.976,4.77866667 L24.9813333,2.77333333 C22.3411376,0.969671564 19.218804,0.00323495437 16.0213333,1.33226763e-15 C7.168,-1.50990331e-15 0,7.168 0,16 C0,24.832 7.168,32 16,32 C24.832,32 32,24.832 32,16 C32,13.8026667 31.5733333,11.6906667 30.7413333,9.792 L28.608,11.9253333 Z" id="Shape"></path>
                </g>
            </g>
        </g>
    </g>
</svg>