<?xml version="1.0" encoding="UTF-8"?>
<svg width="32px" height="32px" viewBox="0 0 32 32" version="1.1" xmlns="http://www.w3.org/2000/svg" xmlns:xlink="http://www.w3.org/1999/xlink">
    <!-- Generator: Sketch 48.2 (47327) - http://www.bohemiancoding.com/sketch -->
    <title>Shape</title>
    <desc>Created with Sketch.</desc>
    <defs></defs>
    <g id="Page-1" stroke="none" stroke-width="1" fill="none" fill-rule="evenodd">
        <path d="M11.5333333,27.7333333 L9.4,27.7333333 L9.4,25.6 L11.5333333,25.6 L11.5333333,27.7333333 Z M28.6,14.9333333 L28.6,29.8666667 C28.6,31.04 27.64,32 26.4666667,32 L5.13333333,32 C3.96,32 3,31.04 3,29.8666667 L3,14.9333333 C3,13.76 3.96,12.8 5.13333333,12.8 L7.26666667,12.8 L7.26666667,8.53333333 C7.26666667,3.84 11.1066667,0 15.8,0 C20.4933333,0 24.3333333,3.84 24.3333333,8.53333333 L24.3333333,12.8 L26.4666667,12.8 C27.64,12.8 28.6,13.76 28.6,14.9333333 Z M11.1066667,12.8 L20.5146667,12.8 L20.5146667,8.53333333 C20.5146667,5.93066667 18.424,3.84 15.8213333,3.84 C13.2186667,3.84 11.128,5.93066667 11.128,8.53333333 L11.128,12.8 L11.1066667,12.8 Z M26.4666667,14.9333333 L7.26666667,14.9333333 L7.26666667,29.8666667 L26.4666667,29.8666667 L26.4666667,14.9333333 Z M11.5333333,17.0666667 L9.4,17.0666667 L9.4,19.2 L11.5333333,19.2 L11.5333333,17.0666667 Z M11.5333333,21.3333333 L9.4,21.3333333 L9.4,23.4666667 L11.5333333,23.4666667 L11.5333333,21.3333333 Z" id="Shape" fill="#484A5F" fill-rule="nonzero"></path>
    </g>
</svg>