<?xml version="1.0" encoding="utf-8"?>
<!-- Generator: Adobe Illustrator 20.0.0, SVG Export Plug-In . SVG Version: 6.00 Build 0)  -->
<svg version="1.1" id="Layer_1" xmlns="http://www.w3.org/2000/svg" xmlns:xlink="http://www.w3.org/1999/xlink" x="0px" y="0px"
	 viewBox="0 0 10 16" style="enable-background:new 0 0 10 16;" xml:space="preserve">
<style type="text/css">
	.st0{fill:#322F33;}
</style>
<title>git-branch</title>
<desc>Created with Sketch.</desc>
<g id="Octicons">
	<g id="git-branch">
		<path id="Shape" class="st0" d="M10,5c0-1.1-0.9-2-2-2S6,3.9,6,5c0,0.7,0.4,1.4,1,1.7V7c0,0.5-0.2,1-0.6,1.4C6,8.8,5.5,9,5,9
			c-0.8,0-1.5,0.2-2,0.4V4.7c0.6-0.3,1-1,1-1.7c0-1.1-0.9-2-2-2S0,1.9,0,3c0,0.7,0.4,1.4,1,1.7v6.6c-0.6,0.4-1,1-1,1.7
			c0,1.1,0.9,2,2,2s2-0.9,2-2c0-0.5-0.2-1-0.5-1.4c0.1-0.1,0.5-0.4,0.6-0.5C4.3,11.1,4.6,11,5,11c1.1-0.1,1.9-0.4,2.8-1.2
			s1.2-2,1.2-3h0C9.6,6.4,10,5.7,10,5L10,5z M2,1.8c0.7,0,1.2,0.5,1.2,1.2S2.7,4.2,2,4.2S0.8,3.7,0.8,3S1.4,1.8,2,1.8L2,1.8z
			 M2,14.2c-0.7,0-1.2-0.6-1.2-1.2c0-0.7,0.6-1.2,1.2-1.2s1.2,0.5,1.2,1.2C3.2,13.7,2.7,14.2,2,14.2L2,14.2z M8,6.2
			C7.3,6.2,6.8,5.7,6.8,5S7.3,3.8,8,3.8S9.2,4.4,9.2,5S8.6,6.2,8,6.2L8,6.2z"/>
	</g>
</g>
</svg>
