<?xml version="1.0" encoding="utf-8"?>
<!-- Generator: Adobe Illustrator 20.0.0, SVG Export Plug-In . SVG Version: 6.00 Build 0)  -->
<svg version="1.1" id="Layer_1" xmlns="http://www.w3.org/2000/svg" xmlns:xlink="http://www.w3.org/1999/xlink" x="0px" y="0px"
	 viewBox="0 0 12 16" style="enable-background:new 0 0 12 16;" xml:space="preserve">
<style type="text/css">
	.st0{fill:#322F33;}
</style>
<title>lock</title>
<desc>Created with Sketch.</desc>
<g id="Octicons">
	<g id="lock">
		<path id="Shape" class="st0" d="M4,13H3v-1h1V13L4,13z M12,7v7c0,0.6-0.4,1-1,1H1c-0.6,0-1-0.4-1-1V7c0-0.6,0.4-1,1-1h1V4
			c0-2.2,1.8-4,4-4s4,1.8,4,4v2h1C11.6,6,12,6.4,12,7L12,7z M3.8,6h4.4V4c0-1.2-1-2.2-2.2-2.2S3.8,2.8,3.8,4L3.8,6L3.8,6z M11,7H2v7
			h9V7L11,7z M4,8H3v1h1V8L4,8z M4,10H3v1h1V10L4,10z"/>
	</g>
</g>
</svg>
