<?xml version="1.0" encoding="utf-8"?>
<!-- Generator: Adobe Illustrator 20.0.0, SVG Export Plug-In . SVG Version: 6.00 Build 0)  -->
<svg version="1.1" id="Layer_1" xmlns="http://www.w3.org/2000/svg" xmlns:xlink="http://www.w3.org/1999/xlink" x="0px" y="0px"
	 viewBox="0 0 12 16" style="enable-background:new 0 0 12 16;" xml:space="preserve">
<style type="text/css">
	.st0{fill:#322F33;}
</style>
<title>repo</title>
<desc>Created with Sketch.</desc>
<g id="Octicons">
	<g id="repo">
		<path id="Shape" class="st0" d="M4,9H3V8h1V9L4,9z M4,6H3v1h1V6L4,6z M4,4H3v1h1V4L4,4z M4,2H3v1h1V2L4,2z M12,1v12
			c0,0.6-0.4,1-1,1H6v2l-1.5-1.5L3,16v-2H1c-0.6,0-1-0.4-1-1V1c0-0.6,0.4-1,1-1h10C11.6,0,12,0.4,12,1L12,1z M11,11H1v2h2v-1h3v1h5
			V11L11,11z M11,1H2v9h9V1L11,1z"/>
	</g>
</g>
</svg>
