<?xml version="1.0" encoding="utf-8"?>
<!-- Generator: Adobe Illustrator 20.0.0, SVG Export Plug-In . SVG Version: 6.00 Build 0)  -->
<svg version="1.1" id="Layer_1" xmlns:sketch="http://www.bohemiancoding.com/sketch/ns"
	 xmlns="http://www.w3.org/2000/svg" xmlns:xlink="http://www.w3.org/1999/xlink" x="0px" y="0px" viewBox="0 0 750 472"
	 style="enable-background:new 0 0 750 472;" xml:space="preserve">
<style type="text/css">
	.st0{fill:#FFFFFF;}
</style>
<title>amex</title>
<desc>Created with Sketch.</desc>
<g id="Page-1" sketch:type="MSPage">
	<g id="Amex" sketch:type="MSLayerGroup">
		<g>
			<path class="st0" d="M503.3,291.6c0-10-4.2-15.5-10.8-19.5c-6.9-3.7-14.7-4.1-25.4-4.1h-48.7v87.9h21.2v-32.1h22.5
				c7.7,0,12.4,0.8,15.5,3.9c3.9,4.1,3.4,11.9,3.4,17.2v11h21.2v-17.4c-0.1-7.7-0.5-11.7-3.5-16c-1.8-2.6-5.6-5.7-10.3-7.4
				C493.9,312.7,503.3,305.6,503.3,291.6z M475.6,304c-2.8,1.7-6.3,1.8-10.4,1.8h-25.6v-19.7h26c3.8,0,7.5,0.1,10.1,1.6
				c2.7,1.4,4.4,4.1,4.4,7.9S478.4,302.3,475.6,304z"/>
			<path class="st0" d="M703,288.2c2.1-1.4,4.7-1.6,8.5-1.6H750V41c0-22.1-17.9-40-40-40H40C17.9,1,0,18.9,0,41v116.6l25.5-58.2h55
				l7.1,14.5V99.4h64.5l14.1,31.6l13.7-31.6h204.7c9.3,0,17.7,1.7,23.8,7.2v-7.2h56v7.2c9.7-5.3,21.6-7.2,35.2-7.2h81.2l7.5,14.5
				V99.4h60.1l8.2,14.5V99.4h58.6v122.5h-59.2l-11.2-18.5v18.5H571l-8-19.5h-18.2l-8.2,19.5h-38.3c-15,0-26.5-3.5-33.8-7.5v7.5
				h-91.1v-27.8c0-3.9-0.7-4.1-3.1-4.2h-3.4l0.1,32H190.8v-15.1l-6.3,15.2h-36.8l-6.3-15v14.9H70.4l-8.1-19.5H44.2L36,221.9H0h0V432
				c0,22.1,17.9,40,40,40h670c22.1,0,40-17.9,40-40v-64.6c-8.4,4.1-19.6,5.7-30.9,5.7h-54.6v-7.8c-6.3,5.1-17.8,7.8-28.7,7.8H463.5
				v-28.3c0-3.5-0.3-3.6-3.8-3.6h-2.7v32h-56.7v-33.1c-9.5,4.1-20.2,4.5-29.4,4.3h-6.8v28.8l-68.7-0.1L278.5,354L260.5,373H149
				V250.4h113.7l16.3,18.8l17.4-18.8h76.1c8.8,0,23.2,0.9,29.7,7.2v-7.2h68c6.4,0,20.2,1.3,28.4,7.2v-7.2h103.1v7.2
				c5.1-4.9,16-7.2,25.2-7.2h57.7v7.2c6.1-4.4,14.6-7.2,26.4-7.2h39v17.5h-42c-22.1,0-30.3,13.4-30.3,26.2
				c0,27.8,24.7,26.5,44.5,27.2c3.7,0,5.9,0.6,7.4,2c1.6,1.2,2.6,3.3,2.6,5.8c0,2.4-1,4.4-2.5,5.7c-1.7,1.6-4.5,2.2-8.5,2.2h-40.6
				v18.8h40.7c13.5,0,23.5-3.8,28.6-11.2v-32.9c-0.6-0.8-1.1-1.5-2-2.2c-4.7-4.8-12.4-6.8-23.9-7.1l-11.4-0.3c-3.5,0-5.9-0.2-8.1-1
				c-2.7-1-4.6-3.2-4.6-6.5C700,291.7,700.8,289.6,703,288.2z"/>
			<path class="st0" d="M638.9,336.9H598v18.8h41.1c21.3,0,33.1-8.8,33.1-27.7c0-9-2.2-14.4-6.3-18.6c-4.8-4.8-12.6-6.8-24.1-7.1
				l-11.4-0.3c-3.6,0-6-0.2-8.2-1c-2.7-1-4.6-3.2-4.6-6.5c0-2.8,0.9-4.9,3.2-6.3c2.1-1.4,4.6-1.6,8.4-1.6h38.7v-18.7h-42.3
				c-22.1,0-30.1,13.4-30.1,26.2c0,27.8,24.7,26.5,44.4,27.2c3.7,0,5.9,0.6,7.5,2c1.4,1.2,2.6,3.3,2.6,5.8c0,2.4-1,4.4-2.5,5.7
				C645.7,336.4,642.9,336.9,638.9,336.9z"/>
			<polygon class="st0" points="585.4,286.1 585.4,267.9 515,267.9 515,355.8 585.4,355.8 585.4,337.5 536,337.4 536,320 584.2,320 
				584.2,302 536,302 536,286.1 			"/>
			<path class="st0" d="M373,267.9h-67.4l-26.8,28.8l-25.9-28.8H168v87.9h83.5l27-29.1l26,29.1h41v-29.5h26.3
				c18.4,0,36.7-5,36.7-29.4C408.5,272.5,389.7,267.9,373,267.9z M240.9,337.4H189V320h46.3V302H189v-16h52.9l23.1,25.6L240.9,337.4
				z M324.5,347.8L292.1,312l32.4-34.7V347.8z M372.7,308.4h-27.2v-22.4H373c7.6,0,12.9,3.1,12.9,10.8
				C385.9,304.4,380.8,308.4,372.7,308.4z"/>
			<path class="st0" d="M413.1,140.5c0-9.8-4-15.5-10.7-19.5c-6.8-3.9-14.8-4.2-25.5-4.2h-48.5v87.8h21.1v-32h22.6
				c7.6,0,12.3,0.7,15.4,3.8c3.8,4.2,3.3,11.8,3.3,17.1l0.1,11.1h21.3v-17.3c0-7.8-0.5-11.7-3.5-16.1c-1.9-2.6-5.8-5.6-10.4-7.4
				C403.7,161.7,413.1,154.5,413.1,140.5z M385.6,152.8c-2.9,1.8-6.3,1.8-10.4,1.8h-25.6v-19.5h26c3.7,0,7.5,0.2,10,1.6
				c2.7,1.3,4.4,4,4.4,7.8C389.9,148.3,388.3,151.4,385.6,152.8z"/>
			<path class="st0" d="M501,135.6h20v-18.8h-20.4c-14.5,0-25.2,3.2-32,10.2c-9.1,9.4-11.4,21.3-11.4,34.3c0,16,3.9,26.1,11.3,33.5
				c7.3,7.5,20.3,9.7,30.6,9.7h24.7l8-19.6h43.8l8.2,19.6h42.9v-65.9l40,65.9h29.9v-87.8h-21.6V178l-37.1-61.2h-32.1v83.1L570,116.8
				h-31.6l-29.7,69.1h-9.5c-5.6,0-11.4-1.1-14.7-4.5c-3.9-4.4-5.8-11.2-5.8-20.6c0-9.2,2.5-16.2,6.1-19.9
				C489,136.8,493.3,135.6,501,135.6z M553.7,131.7l14.6,35h-29.1L553.7,131.7z"/>
			<rect x="425.4" y="116.8" class="st0" width="21.5" height="87.8"/>
			<path class="st0" d="M167.2,176.4l-27.6-59.6h-34.4V200l-35.9-83.2H38L0.2,204.7h22.9l8.2-19.6h43.9l8.1,19.6h42.9v-68.9
				l30.7,68.9h18.5l30.6-68.8l0.1,68.8h21.6v-87.8h-35.1L167.2,176.4z M38.8,166.7l14.3-35l14.4,35H38.8z"/>
			<polygon class="st0" points="313.8,135.1 313.8,116.8 243.4,116.8 243.4,204.7 313.8,204.7 313.8,186.5 264.5,186.5 264.5,168.9 
				312.6,168.9 312.6,150.9 264.5,150.9 264.5,135.1 			"/>
		</g>
	</g>
</g>
</svg>
