<?xml version="1.0" encoding="utf-8"?>
<!-- Generator: Adobe Illustrator 20.0.0, SVG Export Plug-In . SVG Version: 6.00 Build 0)  -->
<svg version="1.1" id="Layer_1" xmlns:sketch="http://www.bohemiancoding.com/sketch/ns"
	 xmlns="http://www.w3.org/2000/svg" xmlns:xlink="http://www.w3.org/1999/xlink" x="0px" y="0px" viewBox="0 0 750 471"
	 style="enable-background:new 0 0 750 471;" xml:space="preserve">
<style type="text/css">
	.st0{fill:#FFFFFF;}
</style>
<title>diners</title>
<desc>Created with Sketch.</desc>
<g id="Page-1" sketch:type="MSPage">
	<g id="diners" sketch:type="MSLayerGroup">
		<path id="Rectangle-1" sketch:type="MSShapeGroup" class="st0" d="M0,40C0,17.9,17.9,0,40,0h670c22.1,0,40,17.9,40,40v391
			c0,22.1-17.9,40-40,40H40c-22.1,0-40-17.9-40-40V40z M584.9,236.9c0-99.4-83-168.1-173.9-168.1h-78.2
			c-92,0-167.7,68.7-167.7,168.1c0,90.9,75.7,165.6,167.7,165.2H411C502,402.6,584.9,327.9,584.9,236.9z M333.2,82.6
			c-84.1,0-152.2,68.3-152.2,152.6c0,84.3,68.1,152.5,152.2,152.6c84.1,0,152.2-68.3,152.2-152.6C485.4,150.9,417.3,82.6,333.2,82.6
			z M236.7,235.2c0.1-41.2,25.7-76.3,61.9-90.3v180.5C262.4,311.5,236.8,276.4,236.7,235.2z M367.7,325.5V144.9
			c36.2,13.9,61.9,49.1,62,90.3C429.6,276.4,403.9,311.5,367.7,325.5z"/>
	</g>
</g>
</svg>
