<?xml version="1.0" encoding="utf-8"?>
<!-- Generator: Adobe Illustrator 20.0.0, SVG Export Plug-In . SVG Version: 6.00 Build 0)  -->
<svg version="1.1"
	 id="svg2" inkscape:version="0.91 r13725" sodipodi:docname="discover.svg" xmlns:cc="http://creativecommons.org/ns#" xmlns:dc="http://purl.org/dc/elements/1.1/" xmlns:inkscape="http://www.inkscape.org/namespaces/inkscape" xmlns:rdf="http://www.w3.org/1999/02/22-rdf-syntax-ns#" xmlns:sketch="http://www.bohemiancoding.com/sketch/ns" xmlns:sodipodi="http://sodipodi.sourceforge.net/DTD/sodipodi-0.dtd" xmlns:svg="http://www.w3.org/2000/svg"
	 xmlns="http://www.w3.org/2000/svg" xmlns:xlink="http://www.w3.org/1999/xlink" x="0px" y="0px" viewBox="0 0 750 471"
	 style="enable-background:new 0 0 750 471;" xml:space="preserve">
<style type="text/css">
	.st0{fill:#FFFFFF;}
</style>
<sodipodi:namedview  bordercolor="#666666" borderopacity="1" gridtolerance="10" guidetolerance="10" id="namedview13" inkscape:current-layer="Page-1" inkscape:cx="425.1153" inkscape:cy="215.24562" inkscape:pageopacity="0" inkscape:pageshadow="2" inkscape:window-height="851" inkscape:window-maximized="1" inkscape:window-width="1440" inkscape:window-x="0" inkscape:window-y="300" inkscape:zoom="0.90226825" objecttolerance="10" pagecolor="#ffffff" showgrid="false">
	</sodipodi:namedview>
<title  id="title4">discover</title>
<desc  id="desc6">Created with Sketch.</desc>
<g id="Page-1" sketch:type="MSPage">
	
		<g id="discover" transform="translate(375.000000, 235.500000) scale(1, -1) translate(-375.000000, -235.500000) " sketch:type="MSLayerGroup">
		<g>
			<path class="st0" d="M678.7,301.5c0,10-7.2,15.2-20.4,15.2h-6.5v-31h6.2C671.5,285.6,678.7,291.2,678.7,301.5z"/>
			<path class="st0" d="M87.4,307.1c-7,6-15.3,8.3-29,8.3h-5.7v-67.7h5.7c13.7,0,22.4,2.5,29,8.1c7.3,6.1,11.8,16,11.8,25.8
				C99.1,291.5,94.7,301,87.4,307.1z"/>
			<path class="st0" d="M710,471H40c-22.1,0-40-17.9-40-40V40C0,17.9,17.9,0,40,0h670c22.1,0,40,17.9,40,40v391
				C750,453.1,732.1,471,710,471z M630.5,332.7H662c24.5,0,38.5-11.1,38.5-30.2h0c0-15.7-8.8-25.9-24.8-29l34.3-43.1h-26.1
				l-29.4,41.1h-2.8v-41.1h-21.2V332.7z M556.3,332.7h60.2v-17.3h-39v-22.7H615v-17.3h-37.5v-27.6h39v-17.3h-60.2V332.7z
				 M465.2,332.9l29-68.7l29.4,68.7h23l-47-104.9h-11.4L442,332.9H465.2z M332.9,281.6c0,30.1,25.9,54.4,57.9,54.4
				c32,0,57.9-24.3,57.9-54.4v0c0-30.1-25.9-54.4-57.9-54.4S332.9,251.5,332.9,281.6L332.9,281.6z M299.8,335.3
				c9.1,0,16.8-1.8,26.1-6.3v-23.5c-8.8,8.1-16.5,11.5-26.6,11.5c-19.9,0-35.6-15.5-35.6-35.1c0-20.7,15.2-35.3,36.6-35.3
				c9.6,0,17.1,3.2,25.6,11.2v-23.5c-9.7-4.3-17.5-6-26.6-6c-32.3,0-57.4,23.3-57.4,53.4C241.9,311.5,267.7,335.3,299.8,335.3z
				 M207,271.5c-2.1,1.2-6.4,3.1-14.7,5.8c-19.9,6.7-26.8,14-26.8,28.1c0,16.7,14.7,29.3,33.9,29.3c11.9,0,22.8-3.8,32-11.3
				l-11.1-13.7c-5.5,5.8-10.8,8.3-17.1,8.3c-9.1,0-15.8-4.9-15.8-11.3c0-5.5,3.7-8.5,16.5-12.9c24.1-8.3,31.3-15.7,31.3-31.9
				c0-19.8-15.5-33.6-37.5-33.6c-16.2,0-27.9,6-37.7,19.5l13.7,12.4c4.9-8.9,13-13.6,23.2-13.6c9.5,0,16.5,6.1,16.5,14.4
				C213.3,265.2,211.2,268.9,207,271.5z M101.2,242.2c-10.4-8.2-22.3-11.8-38.8-11.8h-31v102.3h31.2c34.4,0,58.4-21,58.4-51.2
				C121,266.5,113.6,251.9,101.2,242.2z M130.8,332.7H152V230.4h-21.2V332.7z M740.9,42.5c0-18.8-15.2-34-34-34H149.4
				c382.6,66,591.4,213.4,591.4,213.4V42.5z"/>
		</g>
	</g>
</g>
</svg>
