<?xml version="1.0" encoding="utf-8"?>
<!-- Generator: Adobe Illustrator 20.0.0, SVG Export Plug-In . SVG Version: 6.00 Build 0)  -->
<svg version="1.1" id="Layer_1" xmlns="http://www.w3.org/2000/svg" xmlns:xlink="http://www.w3.org/1999/xlink" x="0px" y="0px"
	 viewBox="0 0 750 471" style="enable-background:new 0 0 750 471;" xml:space="preserve">
<style type="text/css">
	.st0{fill:#FFFFFF;}
</style>
<path class="st0" d="M710,0H40C17.9,0,0,17.9,0,40v391c0,22.1,17.9,40,40,40h670c22.1,0,40-17.9,40-40V40C750,17.9,732.1,0,710,0z
	 M299.2,334.1c-0.7,24.2-21.9,45.5-46.2,46.1c-24.6,0.1-49.2,0-73.8,0V277.9c18.3,3.3,36.6,7,55.3,5.9c17.9-0.9,39.5-3.7,49.8-20.4
	c7.6-12.4,4.2-27.2,4.8-40.9l-0.2-35c-13.9,0.1-27.7,0.2-41.6,0.2c-0.2,20.4,0.4,40.8-0.3,61.1c-1.6,13.5-16.1,20.5-28.5,19.2
	c-14.4-0.1-27.2-5.5-39.3-9.1c0,0-0.3-89.5,0-130.7c4.1-24.1,28.7-42.1,52.9-39.9h67.3C299.3,170.3,299.3,252.2,299.2,334.1z
	 M435,337c-1.6,25.6-26.2,47.1-51.8,44.6h-68.3v-112c17.8,14.1,41.9,16.2,63.9,15.9c14.4-0.4,28.8-2.5,42.7-6.4
	c-0.1-6.8-0.2-13.5-0.3-20.3c-19.6,9.5-44,16.1-64.5,5.4c-16.3-9.3-18.2-32.8-9.5-47.9c10.7-15.7,32.5-16.1,49.4-12.8
	c8.3,0.7,19.4,8.2,24.9,8v-18.6c-28.3-7.2-58.7-9.5-87.1-1.4c-7.1,2.4-14,5.8-19.4,11h0c0.2-23-0.3-46.1,0.3-69.1
	c1.7-21.9,20.1-40.4,41.8-43.1c21.8-0.7,43.7-0.1,65.5-0.3h12.7C435.1,172.4,435.2,254.7,435,337z M525.1,380
	c-25.4,0.2-50.8,0-76.2,0.1v-99h75.7c14.1,0.5,31.2-8.5,30.9-24.3c0.3-14.7-14.9-23.1-27.9-24.1c10.4-1.2,21-8.5,22-19.6
	c2.4-14.5-11.7-24.9-25-25.2c-25.2-0.4-50.5-0.1-75.7-0.2v-48.8c-1.7-25.3,19.7-48.9,44.9-50.4c25.1-0.3,50.1,0,75.2-0.1v242.9
	C570.3,355.8,549.3,377.9,525.1,380z M500.7,241c0,0,13.7-0.8,13.7,12.8s-13.6,12.8-13.7,12.8H473V241H500.7z M473,227v-23.8h26
	c0,0,12.2,0,12.2,11.9S498.9,227,498.9,227H473z"/>
</svg>
