<?xml version="1.0" encoding="utf-8"?>
<!-- Generator: Adobe Illustrator 20.0.0, SVG Export Plug-In . SVG Version: 6.00 Build 0)  -->
<svg version="1.1"
	 id="svg2" inkscape:version="0.91 r13725" sodipodi:docname="mastercard.svg" xmlns:cc="http://creativecommons.org/ns#" xmlns:dc="http://purl.org/dc/elements/1.1/" xmlns:inkscape="http://www.inkscape.org/namespaces/inkscape" xmlns:rdf="http://www.w3.org/1999/02/22-rdf-syntax-ns#" xmlns:sketch="http://www.bohemiancoding.com/sketch/ns" xmlns:sodipodi="http://sodipodi.sourceforge.net/DTD/sodipodi-0.dtd" xmlns:svg="http://www.w3.org/2000/svg"
	 xmlns="http://www.w3.org/2000/svg" xmlns:xlink="http://www.w3.org/1999/xlink" x="0px" y="0px" viewBox="0 0 750 471"
	 style="enable-background:new 0 0 750 471;" xml:space="preserve">
<style type="text/css">
	.st0{fill:#FFFFFF;}
</style>
<sodipodi:namedview  bordercolor="#666666" borderopacity="1" gridtolerance="10" guidetolerance="10" id="namedview13" inkscape:current-layer="svg2" inkscape:cx="630.10374" inkscape:cy="140.4061" inkscape:pageopacity="0" inkscape:pageshadow="2" inkscape:window-height="851" inkscape:window-maximized="1" inkscape:window-width="1440" inkscape:window-x="0" inkscape:window-y="300" inkscape:zoom="2.172232" objecttolerance="10" pagecolor="#ffffff" showgrid="false">
	</sodipodi:namedview>
<title  id="title4">mastercard</title>
<desc  id="desc6">Created with Sketch.</desc>
<g>
	<path class="st0" d="M190,259c0,4.5,2.7,7.4,6.8,7.4c7.8,0,13.4-7.4,13.8-18.2c-2-0.2-2.9-0.3-4.3-0.3C195.5,248,190,251.7,190,259
		z"/>
	<path class="st0" d="M357.9,222.9c-6.1,0-10.4,4.7-12.2,13h21C366.8,234.4,368.7,222.9,357.9,222.9z"/>
	<path class="st0" d="M509.6,259c0,4.5,2.7,7.4,6.9,7.4c7.8,0,13.4-7.4,13.8-18.2c-2-0.2-2.9-0.3-4.3-0.3
		C515.1,248,509.6,251.7,509.6,259z"/>
	<path class="st0" d="M710,0H40C17.9,0,0,17.9,0,40v391c0,22.1,17.9,40,40,40h670c22.1,0,40-17.9,40-40V40C750,17.9,732.1,0,710,0z
		 M499.8,439.3c-47,0-90.3-15.9-124.8-42.6c-34.5,26.7-77.8,42.6-124.8,42.6C137.6,439.3,46,347.8,46,235.5
		c0-112.4,91.6-203.8,204.2-203.8c47,0,90.3,15.9,124.8,42.6c34.5-26.7,77.8-42.6,124.8-42.6c112.6,0,204.2,91.4,204.2,203.8
		C704,347.8,612.4,439.3,499.8,439.3z"/>
	<path class="st0" d="M499.8,49.9L499.8,49.9c-41.4,0-79.7,13.5-110.5,36.4c28,26,48.7,59.8,58.6,97.9h-18.9
		c-9.7-33.7-28.6-63.4-54-86.3c-25.3,22.9-44.2,52.6-53.9,86.3h-19c9.9-38.1,30.6-71.9,58.7-97.9c-30.9-22.9-69.1-36.4-110.6-36.4
		C147.5,49.9,64.3,133,64.3,235.5c0,102.5,83.2,185.5,185.9,185.5c41.4,0,79.7-13.5,110.6-36.4c-26.4-24.5-46.3-55.9-56.8-91.2h19.1
		c10.2,30.9,28.2,58.3,51.8,79.6c23.6-21.4,41.7-48.7,51.9-79.6H446c-10.5,35.3-30.4,66.7-56.8,91.2c30.9,22.9,69.1,36.4,110.5,36.4
		c102.7,0,185.9-83.1,185.9-185.5C685.7,133,602.4,49.9,499.8,49.9z M141,280.7l11-68.7l-24.5,68.7h-13.1l-1.6-68.3l-11.5,68.3h-18
		l15-89.4h27.6l0.8,55.3l18.6-55.3H175l-14.8,89.4H141z M230.3,242.1c-1.7,10.5-5.2,33.1-5.7,38.6h0h-15.9l0.4-7.5
		c-4.9,6-11.3,8.8-20.1,8.8c-10.4,0-17.5-8.1-17.5-19.8c0-17.7,12.4-28,33.6-28c2.2,0,5,0.2,7.8,0.6c0.6-2.4,0.7-3.4,0.7-4.7
		c0-4.8-3.3-6.6-12.3-6.6c-9.4-0.1-17.1,2.2-20.3,3.3c0.2-1.2,2.7-16.3,2.7-16.3c9.5-2.8,15.8-3.9,22.9-3.9
		c16.5,0,25.2,7.4,25.2,21.3C231.9,231.4,231.2,236,230.3,242.1z M282.2,224.6c-4.8-0.7-10-1.1-13.8-1.1c-6.2,0-9.4,2-9.4,5.9
		c0,3.4,0.9,4.2,9,7.9c9.6,4.4,13.5,10.2,13.5,20.3c0,16.6-9.3,24.3-29.6,24.3c-11.7-0.3-15.6-1.2-20-2.2c0.1-0.8,2.6-16.8,2.6-16.8
		c6.1,2,11.5,2.8,17.2,2.8c7.6,0,11-2,11-6.5c0-3.3-1.2-4.4-9-8c-10.1-4.8-14.6-11.1-14.6-20.3c-0.1-13.4,7.3-24.6,28.8-24.6
		c4.4,0,11.9,0.6,16.9,1.4L282.2,224.6z M322.3,225.5h-9.8c-2.2,13.8-5.4,31-5.4,33.3c0,3.8,2,5.4,6.6,5.4c2.2,0,3.9-0.2,5.2-0.7
		l-2.5,16.1c-5.3,1.6-9.4,2.4-13.8,2.4c-9.8,0-15.1-5.6-15.1-16c-0.1-3.2,1.4-11.6,2.7-19.4c1.1-6.8,8.3-49.6,8.3-49.6h19.1l-2.2,11
		h9.8L322.3,225.5z M382.2,250.6h-37.9c-1.3,10.5,5.5,14.9,16.6,14.9c6.8,0,13-1.4,19.8-4.6l-3.2,18.1c-6.6,2-12.9,2.9-19.6,2.9
		c-21.4,0-32.5-11.2-32.5-32.5c0-24.9,14.2-43.2,33.4-43.2c15.7,0,25.8,10.2,25.8,26.3C384.5,238,383.8,243.2,382.2,250.6z
		 M424.7,228.6c-10.7-1.1-12.4,7.6-19.3,52.1h-19.2l0.9-4.9c3.3-22.5,7.6-45.3,10-67.8h0h17.6c0.2,3.7-0.7,7.3-1.1,11
		c5.9-8.6,10.4-13.2,18.4-11.5C429.6,211.5,426.4,219.5,424.7,228.6z M482.3,279.3c-7.1,2-11.6,2.6-16.9,2.6
		c-20.6,0-33.5-14.8-33.5-38.6c0-32,17.8-54.3,43.2-54.3v0c8.4,0,18.3,3.5,21.1,4.6l-3.1,19.4c-6.8-3.5-11.8-4.8-17.1-4.8
		c-14.3,0-24.3,13.8-24.3,33.5c0,13.6,6.7,21.8,17.9,21.8c4.7,0,9.9-1.5,16.3-4.6L482.3,279.3z M549.9,242.1
		c-1.6,10.5-5.2,33.1-5.7,38.6h-15.9l0.4-7.5c-4.9,6-11.3,8.8-20.1,8.8c-10.4,0-17.5-8.1-17.5-19.8c0-17.7,12.4-28,33.7-28
		c2.2,0,5,0.2,7.8,0.6c0.6-2.4,0.7-3.4,0.7-4.7c0-4.8-3.3-6.6-12.3-6.6c-9.4-0.1-17.1,2.2-20.3,3.3c0.2-1.2,2.7-16.3,2.7-16.3
		c9.6-2.8,15.9-3.9,22.9-3.9c16.5,0,25.2,7.4,25.2,21.3C551.5,231.4,550.9,236,549.9,242.1z M573,280.7h-19.2l0.9-4.9
		c3.3-22.5,7.6-45.3,10-67.8h0h17.6c0.2,3.7-0.7,7.3-1.1,11c5.8-8.6,10.3-13.2,18.4-11.5c-2.4,4-5.6,12-7.3,21.1
		C581.6,227.5,579.9,236.2,573,280.7z M643.6,217.1l4.2-25.8h18.9l-14.6,89.4h0H634l0.9-6.8c-5.3,5.6-10.7,8-17.7,8
		c-13.9,0-23.1-12-23.1-30.2c0-24.2,14.3-44.6,31.2-44.6C632.7,207.2,638.4,210.2,643.6,217.1z"/>
	<path class="st0" d="M614.1,249.5c0,9.5,3.3,14.4,9.8,14.4h0c8.9,0,15.2-10.1,15.2-24.5c0-9.3-3.6-14.3-10.2-14.3
		C620.2,225.1,614.1,235.2,614.1,249.5z"/>
</g>
</svg>
