<?xml version="1.0" encoding="utf-8"?>
<!-- Generator: Adobe Illustrator 20.0.0, SVG Export Plug-In . SVG Version: 6.00 Build 0)  -->
<svg version="1.1" id="Layer_1" xmlns="http://www.w3.org/2000/svg" xmlns:xlink="http://www.w3.org/1999/xlink" x="0px" y="0px"
	 viewBox="0 0 750 471" style="enable-background:new 0 0 750 471;" xml:space="preserve">
<style type="text/css">
	.st0{fill:#FFFFFF;}
</style>
<g>
	<path class="st0" d="M343,223.3c2.1,0,3.8-1.4,5.4-3.6c2.2-2.9,3.8-9.9,4.1-11.8c2-8.5,1.7-13.7-2.8-13.7c-5.7,0-8,7-9.8,15.5
		c-0.6,2.9-1.1,5.6-1.1,8.3C338.8,223.3,342.4,223.3,343,223.3z"/>
	<path class="st0" d="M480.3,187.1c4.8-2.3,8.5-7.2,9.7-13c1.4-6.4-0.6-11.2-5.4-13.1c-0.2,0-12.4-1-12.4-1l-2.4-0.2l-0.1,1
		l-0.2,1.4c0-0.1-5.9,25.8-5.9,25.8l-0.2,1.3h3.2C471.6,189.3,476.4,189.1,480.3,187.1z"/>
	<polygon class="st0" points="365.7,262.3 365.8,262.2 365.7,262.2 	"/>
	<path class="st0" d="M522,224.6c2,0,5.5-1.4,6.9-3.4c2.2-2.9,3.8-10,4.2-11.8v0.1c2-8.5,0-13.6-4.4-13.6c-5.7,0-8,7-9.8,15.3
		c-0.6,2.9-1.1,5.6-1.1,8.3C517.9,224.6,521.4,224.6,522,224.6z"/>
	<polygon class="st0" points="476.6,290.2 476.6,290.2 476.7,290.1 	"/>
	<path class="st0" d="M472,305.5c0,0,5.1-2.6,7.9-3.4c2.8-0.6,6.9-1.1,6.9-1.1l3.2-10.8h-13.4L472,305.5z"/>
	<path class="st0" d="M483.3,268L483.3,268l-4.4,13c0,0,4.8-2,7.5-2.7c2.7-0.6,6.7-0.8,6.7-0.8l3.1-9.5H483.3z"/>
	<polygon class="st0" points="465.9,326 479.4,326 483.2,313 469.8,313 	"/>
	<path class="st0" d="M710,0H40C17.9,0,0,17.9,0,40v391c0,22.1,17.9,40,40,40h670c22.1,0,40-17.9,40-40V40C750,17.9,732.1,0,710,0z
		 M530.2,184.5c2.7,1.1,4.6,2.7,5.9,4.6c0.1-0.5,0.1-0.9,0.2-1.4l0.6-0.5c8.6-1.3,11-1.6,20-3.2l0.2,0.7c-1.7,6.9-3.2,13.7-4.9,20.5
		c-3.3,14.3-4.4,21.6-5.7,29.2l-0.8,0.6v-0.1c-8.7-0.1-11.2-0.1-19.1,0.3l-0.5-0.6c0.2-0.9,0.5-1.8,0.7-2.6
		c-2.7,2.2-5.7,3.7-8.8,3.9c-3.2,0.2-6.4-0.2-9.9-1.8c-11.1-4.3-9.3-16.6-7.8-23.3c1.4-6.7,4.1-13.7,9.5-18.7
		C517.3,184.9,526.3,182.9,530.2,184.5z M445.9,176.2c0-0.1,5.6-26,5.6-26s0.4-2,0.6-3.1c2.5,0.3,8.7,0.4,24.2,0.2l6-0.1
		c12.1,0.1,22.6,0.2,27.8,7.6c2.1,2.8,2.8,6.4,2.8,10c0,2.8-0.4,5.5-0.9,7.8c-2.2,9.4-6.9,17.2-14,22.5c-10.3,7.6-23.5,7.6-35.2,7.6
		h-1.2c-0.8,0.5-1.7,1.7-1.7,1.7c-0.1,0.4-2.8,11.7-2.8,11.7c-0.1,0-3.2,15.4-3.7,18c-2.4-0.3-7.9-0.3-21.4-0.1
		C432.6,231.3,445.9,176.2,445.9,176.2z M377.1,215.5c3.5-15.8,4.3-21.8,5.4-29.9l0.6-0.4c8.3-1.1,10.3-1.5,19.2-3.2l0.7,0.8l-1.2,5
		c1.4-0.9,3-1.9,4.4-2.6c4.2-2.1,8.9-2.7,11.5-2.7c3.9,0,8.2,1.1,10,5.7c1.7,4.1,0.5,9.1-1.8,19l-1.1,5c-2.4,11.1-2.7,13.1-3.9,20.6
		l-0.8,0.6l0.1,0.1c-7.1-0.1-9.6-0.1-18,0.3l-0.3-0.6c0.7-3.2,1.6-6.4,2.3-9.6l0.9-4.4c1.6-6.8,3.1-14.8,3.2-17.2
		c0.2-1.5,0.6-5.1-3.4-5.1c-1.8,0-3.6,0.8-5.4,1.7c-0.9,3.7-3,13.9-4,18.5c-2,9.8-2.2,11-3.1,15.8l-0.6,0.6
		c-7.3-0.1-9.9-0.1-18.4,0.3l-0.4-0.7C374.4,227.2,375.8,221.4,377.1,215.5z M384.3,262.2l-3.4,11.4h-25.5l-2.8,2.4
		c-1.2,1.1-1.6,0.7-3.1,1.6c-1.4,0.7-4.4,2.2-8.4,2.2H333l3.3-11h2.5c2.1,0,3.5-0.2,4.2-0.6c0.8-0.5,1.8-1.7,2.7-3.6l4.7-8.6h18.5
		l-3.2,6.2H384.3z M224.9,202c-2.5,9.1-5.4,19.4-16.5,26c-6.3,3.9-15.7,6.1-25.8,6.1c-7.8,0-21.5-1.3-26.4-9.8
		c-1.6-2.6-2.3-5.9-2.3-9.7l1.8-13.2l0.9-4l10.6-47.3c0,0,0.5-2.6,0.6-3c0.2,0.3,3.8,0.5,24,0.3c0,0.1,0,0.3-0.1,0.6
		c-1.9,5.5-12.2,47.5-12.2,47.5c0,0.1-2,12.5-2,12.5l0.1,2.1c0.6,6.2,4.3,9.4,10.9,9.4c4,0,7.6-1.1,10.6-3.7
		c5.2-4.3,6.7-11,8.9-20.3c0,0,9.9-46.1,10.5-48.6v0.1c1.4,0.3,5.7,0.4,20.4,0.3c-0.1,0.1-0.1,0.3-0.2,0.6
		c-1.9,5.6-12.5,49.2-12.5,49.2L224.9,202z M283.3,207.3l-1.1,5c-2.3,11.1-2.7,13.1-3.9,20.6l-0.8,0.6l0.1,0.1
		c-7.1-0.1-9.7-0.1-18.1,0.3l-0.3-0.6c0.7-3.2,1.6-6.4,2.2-9.6l1-4.4c1.6-6.8,3-14.8,3.2-17.2c0.2-1.5,0.6-5.1-3.5-5.1
		c-1.8,0-3.5,0.8-5.4,1.7c-1,3.7-3,13.9-4,18.5c-2.1,9.8-2.2,11-3.1,15.8l-0.6,0.6c-7.3-0.1-9.9-0.1-18.4,0.3l-0.4-0.7
		c1.4-5.9,2.8-11.7,4.1-17.6c3.5-15.8,4.4-21.8,5.4-29.9l0.7-0.4c8.3-1.1,10.2-1.5,19.2-3.2l0.7,0.8l-1.3,5c1.6-0.9,3-1.9,4.6-2.6
		c4.2-2.1,8.9-2.7,11.5-2.7c3.9,0,8.3,1.1,10,5.7C286.6,192.3,285.6,197.4,283.3,207.3z M313.7,204.2c-0.8,3.4-1.7,6.9-2.4,10.3
		c-1.6,7.3-2.3,10-2.6,12c-0.4,1.9-0.5,2.8-1.1,6.6l-0.4,0.3l-0.4,0.3l-0.2-0.1c-4.3,0-7.1-0.1-9.8,0c-2.7,0-5.3,0.2-9.3,0.3
		l-0.2-0.3l-0.2-0.4c1.1-4.2,1.7-5.6,2.3-7.1c0.5-1.5,1-2.9,2.1-7.2c1.2-5.5,2.1-9.4,2.6-12.9c0.6-3.2,0.9-6.1,1.3-9.3l0.3-0.2
		l0.3-0.3c4.3-0.6,7-1,9.8-1.5c2.8-0.4,5.7-0.9,10.1-1.8l0.2,0.4l0.1,0.4C315.4,197.3,314.5,200.7,313.7,204.2z M314.5,189.8
		c-4.8,3.3-11.9,4-15.8,1.7c-4-2.5-3.5-7.1,1.2-10.3c4.8-3.3,11.9-4.1,15.9-1.7C319.9,181.8,319.3,186.4,314.5,189.8z M321.1,209.3
		c1.4-6.7,4-13.7,9.5-18.8c7.7-7.1,17.4-7.5,21.5-7.5c6.8,0,13.5,1.6,17.2,6.4c2.4,3.1,4.3,8.4,1.9,19.4h0.1c-0.8,3.4-3,11.6-7.9,17
		c-6.3,6.7-14.7,9-22.9,9c-3.2,0-8.2-0.4-11.6-1.9C317.8,228.4,319.6,216.1,321.1,209.3z M359.5,341.9h-20.9c-1.7,0-2.9-0.2-4.8-0.6
		c-1.8-0.4-2.6-1.3-3.3-2.4c-0.7-1.3-2-2.2-1.1-4.9l6-20.1H325l3.4-11.5h10.3l2.8-9.3h-10.3l3.3-11l-0.2-0.1h45.4l-3.3,11h-18.1
		l-2.8,9.3h18.6l-3.4,11.3h-18.5l-4.6,15.2c-0.5,1.7,4.4,1.9,6.2,1.9l9.3-1.3L359.5,341.9z M436.4,310.1c-0.6,2.2-1.1,3.9-2.8,5.3
		c-1.8,1.5-3.7,3-8.5,3l-8.8,0.4l-0.1,7.9c-0.1,2.2,0.5,2,0.8,2.4c0.4,0.4,0.7,0.5,1.1,0.7l2.8-0.2l8.4-0.4l-3.5,11.7h-9.6
		c-6.7,0-11.8-0.2-13.3-1.5c-1.7-1-1.9-2.3-1.9-4.6l0.6-31.1H417l-0.2,6.4h3.7c1.2,0,2.2-0.1,2.7-0.4c0.5-0.3,0.8-0.8,1-1.6l1.6-5
		h12l0-0.2l0.1,0.2h-0.1L436.4,310.1z M437.8,295.3c-0.9,1.5-2.1,2.8-4.3,4.1c-2.2,1.1-4.1,1.9-6,2c-1.7,0.1-4.3,0.2-7.9,0.2h-24.7
		l-6.9,23.3c-0.6,2.3-0.9,3.4-0.5,4.1c0.3,0.5,1.2,1.1,2.4,1.1l10.9-1l-3.7,12.7h-12.2c-3.9,0-6.7-0.1-8.7-0.2c-1.9-0.2-3.8,0-5.2-1
		c-1.1-1-2.9-2.4-2.8-3.8c0.1-1.3,0.6-3.3,1.4-6.3l22.2-74.4h15.8l-2.3,8c0,0,5-4.1,8.5-5.5c3.5-1.3,11.4-2.5,11.4-2.5l25.7-0.1
		l-8.8,29.5C440.5,290.5,438.8,293.7,437.8,295.3z M564.9,290.2h-18.1l-2.8,9.1h18.1l-3,9.9h-19.6l-3.5,4.2h8l2,12.5
		c0.2,1.3,0.2,2.1,0.6,2.6c0.4,0.4,2.8,0.6,4.1,0.6h2.4l-3.7,12.2h-6.1c-0.9,0-2.4-0.1-4.3-0.1c-1.9-0.2-3.1-1.3-4.3-1.9
		c-1.1-0.5-2.8-1.9-3.2-4.3l-1.9-12.5l-8.9,12.3c-2.8,3.9-6.6,6.9-13.1,6.9H495l1.2-3.9h-4.1l-1.1,3.7h-16.6l1.1-3.7H442l3.3-11.1
		h3.4l17.6-58.9l3.5-11.9h16.9l-1.8,6c0,0,4.4-3.2,8.8-4.4c3.4-0.9,20.1-1.4,26.3-1.5l0,0h18l0.2,6.8c-0.1,1.1,0.8,1.7,3,1.7h3.6
		l-3.3,11.2h-9.7c-8.4,0.6-11.6-3-11.4-7.1l-0.1-5.6l-1.5,4.9H513l0.1,0.1l-17.4,58h4.7l-1.5,5h4.2c1.3,0,2.6-0.5,3.5-1
		c0.9-0.4,1.8-0.8,2.6-2.2l13-18.5H505l2.9-9.9h19.7l2.8-9.1H511l3.3-11.2h53.8L564.9,290.2z M577.1,254.7l-1.3,1.6c0,0-0.1,0-0.1,0
		l-6.8,11.8c-2.2,4.1-6.3,7.2-12.7,7.2l-11.1-0.2l3.2-10.9h2.2c1.1,0,2-0.1,2.6-0.4c0.6-0.2,0.9-0.6,1.4-1.3l4.1-6.6h0.5l-0.1-0.2
		c5.6-8.5,6.9-12.1,12.7-21.7c-1-10.8-1.6-14.2-2.4-21.3c-0.5-4.2-1.1-8.5-1.7-12.7c-1-8.7-0.8-7.4-1.9-13l-0.1-0.1
		c0-0.3,0-0.6,0.1-0.9l0.6-0.6c8.5-1.1,8.7-1.5,18-3.2l0.7,0.8l1.2,24c0.1,0.5,0.1,0.8,0.1,1.4c4.9-11.1,4.8-8,10.8-22.2v0.1
		c0-0.2,0.1-0.3,0.1-0.4l0.6-0.6c8.1-1.1,9.7-1.5,18.5-3.2l0.7,0.8l0.1,0.1C617.4,182.9,581.8,244.6,577.1,254.7z"/>
	<path class="st0" d="M399.5,285.8l-1.6,5.3h22.6c2.7-0.3,3.2,0.1,3.4-0.1l1.7-5.2h-0.1H399.5z"/>
	<path class="st0" d="M400.9,280.9c0.4-0.4,5.4-4.7,13.7-6.1c2-0.4,14.4-0.2,14.4-0.2l1.9-6.3h-26.2L400.9,280.9z"/>
	<path class="st0" d="M400.8,281.1l0-0.1c0,0,0,0,0,0V281.1z"/>
</g>
</svg>
