<?xml version="1.0" encoding="utf-8"?>
<!-- Generator: Adobe Illustrator 20.0.0, SVG Export Plug-In . SVG Version: 6.00 Build 0)  -->
<svg version="1.1" id="Layer_1" xmlns:sketch="http://www.bohemiancoding.com/sketch/ns"
	 xmlns="http://www.w3.org/2000/svg" xmlns:xlink="http://www.w3.org/1999/xlink" x="0px" y="0px" viewBox="0 0 750 471"
	 style="enable-background:new 0 0 750 471;" xml:space="preserve">
<style type="text/css">
	.st0{fill:#FFFFFF;}
</style>
<title>visa</title>
<desc>Created with Sketch.</desc>
<g id="Page-1" sketch:type="MSPage">
	<g id="Visa" sketch:type="MSLayerGroup">
		<g>
			<path class="st0" d="M710,0H40C17.9,0,0,17.9,0,40v391c0,22.1,17.9,40,40,40h670c22.1,0,40-17.9,40-40V40C750,17.9,732.1,0,710,0
				z M149,333.5l-47.4-170c-16.4-9.1-35.1-16.4-56-21.5l0.7-4.1h86c11.6,0.4,21,4.1,24.2,16.5l18.7,90c0,0,0,0,0,0l5.6,27.1
				L232.9,138h56.5l-84,195.4L149,333.5z M331,333.6h-53.3L311,137.9h53.4L331,333.6z M423.8,336.5c-23.9-0.2-47-5-59.4-10.4
				l7.5-43.8l6.9,3.1c17.5,7.3,28.9,10.3,50.2,10.3c15.3,0,31.8-6,31.9-19.1c0.1-8.6-6.9-14.7-27.7-24.3
				c-20.2-9.4-47.1-25.1-46.8-53.2c0.3-38.1,37.5-64.6,90.2-64.6c20.7,0,37.3,4.3,47.8,8.2l-7.2,42.4l-4.8-2.3
				c-9.8-4-22.5-7.8-39.9-7.5c-20.9,0-30.6,8.7-30.6,16.8c-0.1,9.2,11.3,15.2,30,24.3c30.8,14,45,30.9,44.8,53.2
				C516.3,310.3,479.9,336.5,423.8,336.5z M655,333.7c0,0-4.9-22.5-6.5-29.3c-7.8,0-62.2-0.1-68.3-0.1c-2.1,5.3-11.2,29.4-11.2,29.4
				h-56l79.2-179.4c5.6-12.7,15.2-16.2,27.9-16.2h41.2l43.2,195.6H655z"/>
			<polygon class="st0" points="595.5,264.2 595.5,264.2 595.5,264.2 			"/>
			<path class="st0" d="M627.5,207.7l-3.6-16.9c-2.7,7.3-7.4,19.2-7.1,18.7c0,0-16.8,43.4-21.3,54.7h44.3
				C637.7,254.4,627.5,207.7,627.5,207.7z"/>
		</g>
	</g>
</g>
</svg>
