<?xml version="1.0" encoding="UTF-8" standalone="no"?>
<svg
   xmlns:dc="http://purl.org/dc/elements/1.1/"
   xmlns:cc="http://creativecommons.org/ns#"
   xmlns:rdf="http://www.w3.org/1999/02/22-rdf-syntax-ns#"
   xmlns:svg="http://www.w3.org/2000/svg"
   xmlns="http://www.w3.org/2000/svg"
   viewBox="0 0 55.146667 61.293331"
   height="61.293331"
   width="55.146667"
   xml:space="preserve"
   id="svg2"
   version="1.1"><metadata
     id="metadata8"><rdf:RDF><cc:Work
         rdf:about=""><dc:format>image/svg+xml</dc:format><dc:type
           rdf:resource="http://purl.org/dc/dcmitype/StillImage" /></cc:Work></rdf:RDF></metadata><defs
     id="defs6" /><g
     transform="matrix(1.3333333,0,0,-1.3333333,0,61.293333)"
     id="g10"><g
       transform="scale(0.1)"
       id="g12"><path
         id="path14"
         style="fill:#f79456;fill-opacity:1;fill-rule:nonzero;stroke:none"
         d="m 288.531,183.844 c -32.801,-45.145 -95.984,-55.156 -141.125,-22.352 -9.617,6.981 -17.531,15.399 -23.883,24.668 44.977,-30.879 106.59,-20.566 138.852,23.836 25.816,35.539 25.012,82.188 1.523,116.461 0.754,-0.516 1.54,-0.945 2.282,-1.484 45.14,-32.801 55.152,-95.981 22.351,-141.129 z m -81.742,194.101 c -74.398,0 -134.7109,-60.312 -134.7109,-134.715 0,-74.406 60.3129,-134.718 134.7109,-134.718 74.406,0 134.719,60.312 134.719,134.718 0,74.403 -60.313,134.715 -134.719,134.715" /><path
         id="path16"
         style="fill:#f79456;fill-opacity:1;fill-rule:nonzero;stroke:none"
         d="m 233.859,432.645 c 0,-14.954 -12.117,-27.071 -27.07,-27.071 -14.949,0 -27.07,12.117 -27.07,27.071 0,14.949 12.121,27.07 27.07,27.07 14.953,0 27.07,-12.121 27.07,-27.07" /><path
         id="path18"
         style="fill:#f79456;fill-opacity:1;fill-rule:nonzero;stroke:none"
         d="m 111.055,407.691 c 6.148,-8.464 4.273,-20.316 -4.196,-26.468 -8.4684,-6.149 -20.316,-4.274 -26.4645,4.195 -6.1523,8.465 -4.2773,20.316 4.1875,26.469 8.4688,6.152 20.316,4.273 26.473,-4.196" /><path
         id="path20"
         style="fill:#f79456;fill-opacity:1;fill-rule:nonzero;stroke:none"
         d="M 35.4414,327.82 C 49.6602,323.199 57.4453,307.926 52.8242,293.707 48.207,279.488 32.9336,271.707 18.7148,276.328 4.49609,280.949 -3.28906,296.223 1.33203,310.441 5.94922,324.66 21.2227,332.438 35.4414,327.82" /><path
         id="path22"
         style="fill:#f79456;fill-opacity:1;fill-rule:nonzero;stroke:none"
         d="m 21.2227,203.309 c 9.9531,3.242 20.6445,-2.207 23.8789,-12.161 3.2304,-9.96 -2.211,-20.644 -12.168,-23.875 -9.9531,-3.242 -20.6445,2.207 -23.87891,12.157 -3.23047,9.961 2.21481,20.644 12.16801,23.879" /><path
         id="path24"
         style="fill:#f79456;fill-opacity:1;fill-rule:nonzero;stroke:none"
         d="m 380.648,167.273 c -9.953,3.231 -15.402,13.915 -12.164,23.875 3.235,9.954 13.922,15.403 23.875,12.161 9.954,-3.235 15.403,-13.918 12.164,-23.879 -3.23,-9.95 -13.918,-15.399 -23.875,-12.157" /><path
         id="path26"
         style="fill:#f79456;fill-opacity:1;fill-rule:nonzero;stroke:none"
         d="m 394.871,276.328 c -14.219,-4.621 -29.492,3.16 -34.109,17.379 -4.621,14.219 3.156,29.492 17.375,34.113 14.218,4.618 29.492,-3.16 34.113,-17.379 4.617,-14.218 -3.16,-29.492 -17.379,-34.113" /><path
         id="path28"
         style="fill:#f79456;fill-opacity:1;fill-rule:nonzero;stroke:none"
         d="m 333.191,385.418 c -6.152,-8.469 -18.003,-10.344 -26.468,-4.195 -8.469,6.152 -10.344,18.004 -4.196,26.468 6.153,8.469 18.004,10.348 26.469,4.196 8.469,-6.153 10.348,-18.004 4.195,-26.469" /><path
         id="path30"
         style="fill:#f79456;fill-opacity:1;fill-rule:nonzero;stroke:none"
         d="M 269.402,52.3125 H 144.184 V 78.4648 H 269.402 V 52.3125" /><path
         id="path32"
         style="fill:#f79456;fill-opacity:1;fill-rule:nonzero;stroke:none"
         d="M 269.402,-0.00390625 H 144.184 V 26.1602 H 269.402 V -0.00390625" /></g></g></svg>