<?xml version="1.0" encoding="UTF-8"?>
<svg width="13px" height="12px" viewBox="0 0 13 12" version="1.1" xmlns="http://www.w3.org/2000/svg" xmlns:xlink="http://www.w3.org/1999/xlink">
    <!-- Generator: Sketch 48.2 (47327) - http://www.bohemiancoding.com/sketch -->
    <title>Shape</title>
    <desc>Created with Sketch.</desc>
    <defs>
        <linearGradient x1="50%" y1="0%" x2="50%" y2="97.1739477%" id="linearGradient-1">
            <stop stop-color="#F4F4F4" offset="0%"></stop>
            <stop stop-color="#FFFFFF" offset="100%"></stop>
        </linearGradient>
    </defs>
    <g id="Desktop-HD" stroke="none" stroke-width="1" fill="none" fill-rule="evenodd" transform="translate(-1240.000000, -1834.000000)">
        <rect id="background" fill="url(#linearGradient-1)" x="0" y="1800" width="1440" height="147"></rect>
        <g id="social-&amp;-contact" transform="translate(1175.000000, 1832.000000)">
            <g id="Twitter_Logo_Blue" transform="translate(63.000000, 0.000000)">
                <rect id="Rectangle-path" x="0" y="0" width="12" height="12"></rect>
                <path d="M6.02376,12.7042144 C10.55208,12.7042144 13.02888,8.95253443 13.02888,5.69909443 C13.02888,5.59253443 13.02888,5.48645443 13.02168,5.38085443 C13.5035191,5.03233164 13.9194506,4.60079654 14.25,4.10645443 C13.8006619,4.30555928 13.3239981,4.43613218 12.83592,4.49381443 C13.3498771,4.18612581 13.7345393,3.70218498 13.91832,3.13205443 C13.4350356,3.41883298 12.9063101,3.6209402 12.35496,3.72965443 C11.5917997,2.91816368 10.3791453,2.71954847 9.39698365,3.24518079 C8.41482201,3.77081312 7.907412,4.88997078 8.15928,5.97509443 C6.17970995,5.8758542 4.33534837,4.9408496 3.0852,3.40277443 C2.43173892,4.52772389 2.76551418,5.96686698 3.84744,6.68933443 C3.45563578,6.67772205 3.0723741,6.57202875 2.73,6.38117443 C2.73,6.39125443 2.73,6.40181443 2.73,6.41237443 C2.7303207,7.58433905 3.55644071,8.5937513 4.7052,8.82581443 C4.34273741,8.92466565 3.96243868,8.93911569 3.59352,8.86805443 C3.91605501,9.87097738 4.84035579,10.5580307 5.89368,10.5778144 C5.02187282,11.2629818 3.94490857,11.6349317 2.83608,11.6338144 C2.64019371,11.6334384 2.44449795,11.621578 2.25,11.5982944 C3.37590526,12.3208272 4.68595843,12.7040785 6.02376,12.7022944" id="Shape" fill="#484A5F" fill-rule="nonzero"></path>
            </g>
        </g>
    </g>
</svg>